<?xml version="1.0" encoding="UTF-8" standalone="no"?>
<!-- Created with Inkscape (http://www.inkscape.org/) -->

<svg
   width="150mm"
   height="150mm"
   viewBox="0 0 150 150"
   version="1.1"
   id="svg1"
   inkscape:version="1.3 (0e150ed6c4, 2023-07-21)"
   sodipodi:docname="data03.svg"
   xmlns:inkscape="http://www.inkscape.org/namespaces/inkscape"
   xmlns:sodipodi="http://sodipodi.sourceforge.net/DTD/sodipodi-0.dtd"
   xmlns="http://www.w3.org/2000/svg"
   xmlns:svg="http://www.w3.org/2000/svg">
  <sodipodi:namedview
     id="namedview1"
     pagecolor="#ffffff"
     bordercolor="#666666"
     borderopacity="1.0"
     inkscape:showpageshadow="2"
     inkscape:pageopacity="0.0"
     inkscape:pagecheckerboard="0"
     inkscape:deskcolor="#d1d1d1"
     inkscape:document-units="mm"
     inkscape:zoom="0.71624579"
     inkscape:cx="181.50194"
     inkscape:cy="149.39006"
     inkscape:window-width="1920"
     inkscape:window-height="1008"
     inkscape:window-x="0"
     inkscape:window-y="0"
     inkscape:window-maximized="1"
     inkscape:current-layer="layer1" />
  <defs
     id="defs1" />
  <g
     inkscape:label="Ebene 1"
     inkscape:groupmode="layer"
     id="layer1"
     transform="translate(-56.888057,-108.97388)">
    <path
       style="font-size:105.833px;line-height:1.35;font-family:'Linux Libertine Mono O';-inkscape-font-specification:'Linux Libertine Mono O';stroke-width:0.264583"
       d="m 129.95715,150.85368 c 6.34998,0 11.32413,2.75166 11.32413,10.05413 0,5.71499 -6.24414,14.49912 -18.83827,16.08662 l 0.635,3.70415 c 2.11666,-0.21166 2.96332,-0.21166 4.86832,-0.21166 8.25497,0 17.25077,1.79916 17.25077,14.71079 0,15.23995 -12.27662,18.3091 -17.35661,18.3091 -7.40831,0 -6.45581,-2.64582 -7.93747,-4.65665 -1.27,-1.58749 -2.96333,-2.96332 -5.50332,-2.96332 -2.64582,0 -5.29165,2.11666 -5.29165,3.91582 0,4.55082 10.5833,7.72581 18.20328,7.72581 15.13412,0 28.57491,-8.78414 28.57491,-23.91826 0,-12.48829 -10.37164,-16.93328 -17.88578,-18.09744 l -0.10583,-0.21167 c 10.47746,-4.44498 13.33496,-9.10164 13.33496,-15.13412 0,-3.38665 -0.84667,-6.24414 -3.91583,-9.10164 -2.75165,-2.53999 -7.19664,-4.23332 -13.86412,-4.23332 -18.62661,0 -24.02409,10.79497 -24.02409,14.60496 0,1.58749 1.27,3.80999 4.33915,3.80999 4.44499,0 4.97415,-3.70416 4.97415,-5.92665 0,-7.30248 7.40831,-8.46664 11.2183,-8.46664 z"
       id="text1"
       aria-label="3" />
  </g>
</svg>
