<?xml version="1.0" encoding="UTF-8" standalone="no"?>
<!-- Created with Inkscape (http://www.inkscape.org/) -->

<svg
   width="150mm"
   height="150mm"
   viewBox="0 0 150 150"
   version="1.1"
   id="svg1"
   inkscape:version="1.3 (0e150ed6c4, 2023-07-21)"
   sodipodi:docname="data1.svg"
   xmlns:inkscape="http://www.inkscape.org/namespaces/inkscape"
   xmlns:sodipodi="http://sodipodi.sourceforge.net/DTD/sodipodi-0.dtd"
   xmlns="http://www.w3.org/2000/svg"
   xmlns:svg="http://www.w3.org/2000/svg">
  <sodipodi:namedview
     id="namedview1"
     pagecolor="#ffffff"
     bordercolor="#666666"
     borderopacity="1.0"
     inkscape:showpageshadow="2"
     inkscape:pageopacity="0.0"
     inkscape:pagecheckerboard="0"
     inkscape:deskcolor="#d1d1d1"
     inkscape:document-units="mm"
     inkscape:zoom="0.71624579"
     inkscape:cx="181.50194"
     inkscape:cy="149.39006"
     inkscape:window-width="1920"
     inkscape:window-height="1008"
     inkscape:window-x="0"
     inkscape:window-y="0"
     inkscape:window-maximized="1"
     inkscape:current-layer="layer1" />
  <defs
     id="defs1" />
  <g
     inkscape:label="Ebene 1"
     inkscape:groupmode="layer"
     id="layer1"
     transform="translate(-56.888057,-108.97388)">
    <path
       style="font-size:105.833px;line-height:1.35;font-family:'Linux Libertine Mono O';-inkscape-font-specification:'Linux Libertine Mono O';stroke-width:0.264583"
       d="m 139.37629,202.28852 v -39.47571 c 0,-6.87915 0.10583,-13.75829 0.3175,-15.23995 0,-0.52917 -0.21167,-0.635 -0.635,-0.635 -6.24415,3.80999 -17.03911,9.52497 -26.35242,14.18162 0.21167,1.27 1.16417,3.28082 2.11666,4.02165 4.86832,-2.22249 11.42997,-4.97415 13.44079,-4.97415 1.69333,0 2.11666,2.64583 2.11666,6.56165 v 35.55989 c 0,4.86831 -0.74083,7.30247 -2.53999,8.6783 -1.69333,1.27 -7.19664,1.69333 -10.9008,1.79916 -0.63499,0.635 -0.63499,3.28083 0,3.91582 5.18582,-0.10583 11.42997,-0.21166 18.73244,-0.21166 5.39749,0 10.79497,0.10583 16.08662,0.21166 0.635,-0.63499 0.635,-3.28082 0,-3.91582 -3.49249,-0.10583 -8.88997,-0.52916 -10.2658,-1.69332 -1.5875,-1.27 -2.11666,-3.70416 -2.11666,-8.78414 z"
       id="path2"
       aria-label="1" />
    <rect
       style="fill:none;fill-opacity:1;stroke:#000000;stroke-width:5;stroke-dasharray:none;stroke-opacity:1"
       id="rect1"
       width="105.00001"
       height="105"
       x="79.388054"
       y="131.47388" />
  </g>
</svg>
