<?xml version="1.0" encoding="UTF-8" standalone="no"?>
<!-- Created with Inkscape (http://www.inkscape.org/) -->

<svg
   width="150mm"
   height="150mm"
   viewBox="0 0 150 150"
   version="1.1"
   id="svg1"
   inkscape:version="1.3 (0e150ed6c4, 2023-07-21)"
   sodipodi:docname="navctr.svg"
   xmlns:inkscape="http://www.inkscape.org/namespaces/inkscape"
   xmlns:sodipodi="http://sodipodi.sourceforge.net/DTD/sodipodi-0.dtd"
   xmlns="http://www.w3.org/2000/svg"
   xmlns:svg="http://www.w3.org/2000/svg">
  <sodipodi:namedview
     id="namedview1"
     pagecolor="#ffffff"
     bordercolor="#666666"
     borderopacity="1.0"
     inkscape:showpageshadow="2"
     inkscape:pageopacity="0.0"
     inkscape:pagecheckerboard="0"
     inkscape:deskcolor="#d1d1d1"
     inkscape:document-units="mm"
     inkscape:zoom="0.71624579"
     inkscape:cx="181.50194"
     inkscape:cy="149.39006"
     inkscape:window-width="1920"
     inkscape:window-height="1008"
     inkscape:window-x="0"
     inkscape:window-y="0"
     inkscape:window-maximized="1"
     inkscape:current-layer="layer1" />
  <defs
     id="defs1" />
  <g
     inkscape:label="Ebene 1"
     inkscape:groupmode="layer"
     id="layer1"
     transform="translate(-56.888057,-108.97388)">
    <path
       style="fill:none;fill-opacity:1;stroke:#000000;stroke-width:10;stroke-linecap:round;stroke-linejoin:round;stroke-dasharray:none;stroke-opacity:1"
       id="path2"
       sodipodi:type="arc"
       sodipodi:cx="-131.88922"
       sodipodi:cy="184.02948"
       sodipodi:rx="45.029358"
       sodipodi:ry="45.086285"
       sodipodi:start="0.87284594"
       sodipodi:end="0.8688084"
       sodipodi:open="true"
       sodipodi:arc-type="arc"
       d="m -102.95116,218.57283 a 45.029358,45.086285 0 0 1 -63.40857,-5.53385 45.029358,45.086285 0 0 1 5.46286,-63.49429 45.029358,45.086285 0 0 1 63.419599,5.40568 45.029358,45.086285 0 0 1 -5.334829,63.50519"
       transform="scale(-1,1)" />
    <path
       style="fill:none;fill-opacity:1;stroke:#000000;stroke-width:7;stroke-linecap:round;stroke-linejoin:round;stroke-dasharray:none;stroke-opacity:1"
       id="path2-7"
       sodipodi:type="arc"
       sodipodi:cx="-131.87166"
       sodipodi:cy="183.88737"
       sodipodi:rx="9.0112696"
       sodipodi:ry="8.9281521"
       sodipodi:start="0.87284594"
       sodipodi:end="0.8688084"
       sodipodi:open="true"
       sodipodi:arc-type="arc"
       d="m -126.08058,190.72778 a 9.0112696,8.9281521 0 0 1 -12.68931,-1.09584 9.0112696,8.9281521 0 0 1 1.09323,-12.57337 9.0112696,8.9281521 0 0 1 12.69152,1.07045 9.0112696,8.9281521 0 0 1 -1.06761,12.57553"
       transform="scale(-1,1)" />
    <path
       style="fill:none;stroke:#000000;stroke-width:5;stroke-linecap:butt;stroke-linejoin:miter;stroke-dasharray:none;stroke-opacity:1"
       d="m 107.79795,171.74165 -12.374361,12.37438 12.374351,12.37436"
       id="path1" />
    <path
       style="fill:none;stroke:#000000;stroke-width:5;stroke-linecap:butt;stroke-linejoin:miter;stroke-dasharray:none;stroke-opacity:1"
       d="m 155.81043,171.74165 12.37436,12.37438 -12.37435,12.37436"
       id="path1-3" />
    <path
       style="fill:none;stroke:#000000;stroke-width:5;stroke-linecap:butt;stroke-linejoin:miter;stroke-dasharray:none;stroke-opacity:1"
       d="m 145.40456,160.12899 -12.37438,-12.37436 -12.37436,12.37435"
       id="path1-2" />
    <path
       style="fill:none;stroke:#000000;stroke-width:5;stroke-linecap:butt;stroke-linejoin:miter;stroke-dasharray:none;stroke-opacity:1"
       d="m 120.65582,208.66719 12.37438,12.37436 12.37436,-12.37435"
       id="path1-7" />
  </g>
</svg>
