<?xml version="1.0" encoding="UTF-8" standalone="no"?>
<!-- Created with Inkscape (http://www.inkscape.org/) -->

<svg
   width="150mm"
   height="150mm"
   viewBox="0 0 150 150"
   version="1.1"
   id="svg1"
   inkscape:version="1.3 (0e150ed6c4, 2023-07-21)"
   sodipodi:docname="status.svg"
   xmlns:inkscape="http://www.inkscape.org/namespaces/inkscape"
   xmlns:sodipodi="http://sodipodi.sourceforge.net/DTD/sodipodi-0.dtd"
   xmlns="http://www.w3.org/2000/svg"
   xmlns:svg="http://www.w3.org/2000/svg">
  <sodipodi:namedview
     id="namedview1"
     pagecolor="#ffffff"
     bordercolor="#666666"
     borderopacity="1.0"
     inkscape:showpageshadow="2"
     inkscape:pageopacity="0.0"
     inkscape:pagecheckerboard="0"
     inkscape:deskcolor="#d1d1d1"
     inkscape:document-units="mm"
     inkscape:zoom="0.71624579"
     inkscape:cx="392.32342"
     inkscape:cy="149.39006"
     inkscape:window-width="1920"
     inkscape:window-height="1008"
     inkscape:window-x="0"
     inkscape:window-y="0"
     inkscape:window-maximized="1"
     inkscape:current-layer="layer1" />
  <defs
     id="defs1" />
  <g
     inkscape:label="Ebene 1"
     inkscape:groupmode="layer"
     id="layer1"
     transform="translate(-56.888057,-108.97388)">
    <path
       style="font-size:70.5556px;line-height:1.25;font-family:'Linux Libertine Mono O';-inkscape-font-specification:'Linux Libertine Mono O';letter-spacing:-10.5833px;stroke-width:0.264583"
       d="m 84.570985,230.26963 v -26.31724 c 0,-4.58612 0.07056,-9.17223 0.211667,-10.16001 0,-0.35278 -0.141111,-0.42333 -0.423334,-0.42333 -4.16278,2.54 -11.359452,6.35 -17.568345,9.45445 0.141111,0.84666 0.776112,2.18722 1.411112,2.68111 3.245558,-1.48167 7.620005,-3.31611 8.960562,-3.31611 1.128889,0 1.411112,1.76389 1.411112,4.37444 v 23.70669 c 0,3.24555 -0.49389,4.86833 -1.693335,5.78556 -1.128889,0.84666 -4.797781,1.12889 -7.267227,1.19944 -0.423334,0.42333 -0.423334,2.18722 0,2.61056 3.457225,-0.0706 7.620005,-0.14111 12.488342,-0.14111 3.598336,0 7.196671,0.0705 10.724452,0.14111 0.423333,-0.42334 0.423333,-2.18723 0,-2.61056 -2.328335,-0.0706 -5.926671,-0.35278 -6.843894,-1.12889 -1.058334,-0.84667 -1.411112,-2.46944 -1.411112,-5.85611 z M 100.65766,204.0935 c 0,1.62278 1.19944,2.96333 2.89278,2.96333 1.41111,0 2.82222,-1.41111 2.82222,-3.10444 0,-0.635 -0.14111,-0.98778 -0.28222,-1.55223 -0.14111,-0.56444 -0.0705,-1.19944 -0.0705,-1.83444 0,-1.905 2.25777,-4.51556 8.18445,-4.51556 2.89278,0 7.83167,1.76389 7.83167,9.10167 0,4.86834 -2.61056,8.81945 -7.40834,13.40557 l -5.99723,5.57389 c -7.97278,7.62 -9.242781,11.21834 -9.242781,15.7339 0,0 4.656671,-0.14111 7.267231,-0.14111 h 14.25223 c 2.61056,0 6.27945,0.14111 6.27945,0.14111 1.05833,-4.02167 1.905,-9.73668 1.97555,-11.99445 -0.49389,-0.35278 -1.48166,-0.56445 -2.32833,-0.42334 -1.41111,5.43278 -2.82223,7.33778 -5.71501,7.33778 H 106.2316 c 0,-2.75166 2.18723,-5.715 6.06778,-9.24278 l 8.18445,-7.40834 c 4.65667,-4.16278 8.53723,-7.83167 8.53723,-13.33501 0,-8.255 -6.63222,-11.43 -14.32279,-11.43 -9.03111,0 -14.04056,6.13833 -14.04056,10.72445 z m 46.77836,-8.1139 c 4.23334,0 7.54945,1.83445 7.54945,6.70279 0,3.81 -4.16278,9.66611 -12.5589,10.72445 l 0.42334,2.46944 c 1.41111,-0.14111 1.97555,-0.14111 3.24556,-0.14111 5.50333,0 11.50056,1.19945 11.50056,9.80723 0,10.16001 -8.18445,12.20612 -11.57112,12.20612 -4.93889,0 -4.30389,-1.76389 -5.29167,-3.10445 -0.84667,-1.05833 -1.97556,-1.97555 -3.66889,-1.97555 -1.76389,0 -3.52778,1.41111 -3.52778,2.61055 0,3.03389 7.05556,5.15056 12.13556,5.15056 10.08945,0 19.05001,-5.85611 19.05001,-15.94556 0,-8.32556 -6.91444,-11.2889 -11.92389,-12.06501 l -0.0706,-0.14111 c 6.98501,-2.96334 8.89001,-6.06778 8.89001,-10.08945 0,-2.25778 -0.56445,-4.16278 -2.61056,-6.06779 -1.83445,-1.69333 -4.79778,-2.82222 -9.24278,-2.82222 -12.41779,0 -16.01613,7.19667 -16.01613,9.73667 0,1.05834 0.84667,2.54001 2.89278,2.54001 2.96334,0 3.31612,-2.46945 3.31612,-3.95112 0,-4.86834 4.93889,-5.64445 7.47889,-5.64445 z m 38.66448,5.08001 v 21.94279 h -16.22779 c 3.59833,-6.27945 10.44223,-14.95779 16.22779,-21.94279 z m 13.97001,21.94279 h -8.04334 v -22.22502 c 0,-3.81 0,-6.63222 0.14111,-7.19667 l -0.14111,-0.28222 h -2.75167 c -0.42333,0 -1.05833,0.635 -1.34056,0.91722 -5.08,5.5739 -15.24001,18.34446 -21.73112,29.21002 0.0705,1.19945 0.56444,3.175 2.68111,3.175 h 17.21557 v 6.91445 c 0,3.45723 -4.79778,3.6689 -7.76112,3.73945 -0.42333,0.42333 -0.42333,2.18722 0,2.61056 2.25778,-0.0706 7.19667,-0.14111 10.44223,-0.14111 2.75167,0 8.04334,0.0705 10.30112,0.14111 0.42333,-0.42334 0.42333,-2.18723 0,-2.61056 -3.52778,-0.21167 -7.05556,-0.42333 -7.05556,-3.73945 v -6.91445 h 7.05556 c 0.98778,0 1.97555,-1.41111 1.97555,-2.32833 0,-0.77611 -0.21166,-1.27 -0.98777,-1.27 z"
       id="text1"
       aria-label="1234" />
  </g>
</svg>
